<?xml version="1.0" standalone="no"?>
<!DOCTYPE svg PUBLIC "-//W3C//DTD SVG 20010904//EN"
 "http://www.w3.org/TR/2001/REC-SVG-20010904/DTD/svg10.dtd">
<svg version="1.0" xmlns="http://www.w3.org/2000/svg"
 width="16.000000pt" height="16.000000pt" viewBox="0 0 16.000000 16.000000"
 preserveAspectRatio="xMidYMid meet">
<metadata>
Created by potrace 1.11, written by Peter Selinger 2001-2013
</metadata>
<g transform="translate(0.000000,16.000000) scale(0.003397,-0.003397)"
fill="#000000" stroke="none">
<path d="M303 4588 c5 -14 2 -17 -15 -14 -12 1 -30 -4 -40 -13 -19 -18 -46
-116 -53 -196 -3 -27 -8 -75 -11 -105 -6 -58 -8 -84 -18 -220 -4 -47 -11 -107
-16 -135 -6 -27 -9 -120 -7 -205 1 -85 0 -180 -4 -210 -5 -30 -4 -59 1 -65 5
-6 9 -33 8 -61 -1 -27 6 -67 16 -89 18 -41 25 -182 11 -206 -4 -6 -9 -73 -12
-148 -2 -75 -8 -233 -15 -351 -13 -239 -12 -689 2 -1295 6 -220 12 -510 16
-645 3 -135 8 -256 11 -270 3 -14 5 -54 5 -89 -2 -87 24 -126 86 -127 28 0 39
2 30 8 -8 6 -4 6 12 1 32 -10 140 -10 140 0 0 4 5 7 11 7 5 0 7 -4 4 -10 -4
-6 6 -10 22 -9 25 0 26 1 8 9 -20 9 -20 9 1 9 11 1 24 -3 30 -8 15 -15 1079
-31 1102 -17 4 2 14 1 22 -4 9 -5 19 -5 27 2 7 6 13 6 13 2 0 -13 355 -17
1580 -18 1156 -1 1260 3 1246 40 -3 8 -1 14 3 14 5 0 8 8 6 17 -1 10 1 23 6
29 11 13 14 111 10 273 -1 24 4 50 10 57 8 10 8 18 1 27 -11 13 -17 218 -9
307 3 25 1 55 -4 68 -6 15 -5 21 1 17 14 -9 12 9 -2 23 -9 9 -9 12 0 12 7 0
12 7 12 15 0 8 -4 15 -9 15 -10 0 -3 39 10 56 13 16 0 277 -14 286 -9 6 -9 8
1 8 6 0 12 4 12 10 0 5 -5 9 -12 7 -7 -1 -13 8 -14 20 -1 24 20 32 30 11 3 -7
4 -4 3 7 -2 12 -10 19 -20 19 -14 -2 -16 3 -11 20 4 11 8 59 10 106 2 47 5
130 7 185 3 67 1 105 -7 114 -8 12 -8 13 2 7 8 -5 12 -1 12 13 0 11 -8 25 -17
30 -16 9 -16 10 5 11 19 0 22 5 22 40 0 27 -6 42 -17 49 -17 10 -17 10 1 11
12 0 16 5 12 15 -3 8 -9 22 -13 32 -4 11 -3 14 5 9 8 -5 11 8 9 44 -1 27 -6
50 -12 50 -5 0 -3 5 5 10 8 5 10 10 4 10 -7 0 -11 36 -10 109 0 60 4 107 8
105 4 -3 8 0 8 5 0 6 -4 11 -10 11 -5 0 -10 5 -10 11 0 5 6 7 13 3 7 -5 6 0
-3 11 -9 11 -10 16 -2 11 7 -4 12 -2 12 6 0 8 -6 20 -12 27 -10 11 -10 13 0 7
6 -4 12 -3 12 3 0 5 -8 12 -17 14 -17 4 -17 5 0 6 14 1 17 11 17 61 0 33 -4
60 -10 60 -5 0 -9 11 -8 24 1 14 6 22 10 20 11 -7 4 50 -7 58 -6 5 -6 8 2 8
11 0 11 7 -3 76 -3 19 -1 34 5 38 7 5 8 13 2 25 -6 10 -8 42 -5 72 4 52 5 64
3 92 0 6 2 22 5 35 2 12 1 22 -4 22 -5 0 -3 19 5 41 12 33 12 45 3 56 -9 11
-9 16 1 22 6 4 11 23 11 42 -1 19 -1 115 -1 214 0 99 -2 198 -5 220 -13 113
-15 197 -4 210 8 10 8 14 -2 18 -10 4 -10 6 0 6 17 1 17 158 -1 175 -13 13
-11 120 2 111 4 -2 8 2 8 10 0 8 -5 15 -10 15 -6 0 -5 5 1 13 11 13 7 90 -5
110 -4 6 -8 27 -10 47 -2 26 -1 31 7 20 8 -12 10 -9 10 13 0 15 -4 27 -10 27
-5 0 -10 11 -10 24 0 24 -23 41 -49 37 -7 -1 -11 1 -8 6 3 5 -8 9 -24 9 -16 1
-26 -3 -23 -8 4 -6 -4 -8 -17 -7 -13 2 -30 0 -37 -5 -7 -4 -25 -3 -40 3 -47
18 -124 27 -222 24 -52 -1 -156 -4 -230 -6 -74 -2 -145 0 -157 5 -16 5 -23 4
-23 -5 0 -9 -2 -9 -8 -1 -8 13 -172 15 -172 2 0 -4 -5 -8 -11 -8 -5 0 -7 6 -3
13 5 9 4 9 -6 0 -9 -9 -19 -9 -32 -2 -14 8 -24 7 -36 -3 -13 -11 -14 -11 -7 1
6 11 5 12 -6 5 -15 -10 -509 -14 -509 -5 0 3 -14 7 -30 8 -22 2 -29 -1 -23
-10 5 -9 3 -9 -8 0 -17 14 -206 16 -214 3 -7 -11 -615 -9 -615 2 0 5 -6 6 -12
1 -7 -4 -101 -9 -208 -10 -107 -1 -230 -3 -273 -4 -59 -2 -81 1 -88 12 -7 12
-9 12 -9 -1 0 -12 -2 -12 -8 -2 -9 14 -42 6 -42 -9 0 -6 -9 -5 -20 1 -11 6
-20 7 -20 3 0 -4 -5 -2 -11 4 -13 13 -40 6 -52 -14 -11 -18 -147 -18 -147 0 0
8 -14 12 -37 12 -21 -1 -45 2 -55 7 -10 5 -18 3 -21 -6 -7 -17 -47 -10 -47 8
0 6 -4 5 -9 -3 -8 -12 -14 -13 -35 -3 -14 6 -26 8 -26 3 0 -5 -39 -9 -87 -8
-56 0 -80 3 -67 9 20 9 10 7 -65 -12 -37 -9 -55 -5 -46 11 4 5 2 9 -4 9 -5 0
-11 -6 -14 -12 -4 -10 -7 -10 -18 0 -16 14 -33 16 -24 2 4 -6 -14 -10 -47 -9
-40 1 -47 3 -28 9 17 5 3 8 -45 8 -38 1 -82 -4 -98 -10 -23 -9 -31 -7 -49 8
-19 17 -21 17 -15 2z"/>
<path d="M1150 4570 c0 -5 5 -10 10 -10 6 0 10 5 10 10 0 6 -4 10 -10 10 -5 0
-10 -4 -10 -10z"/>
<path d="M4605 3670 c3 -5 8 -10 11 -10 2 0 4 5 4 10 0 6 -5 10 -11 10 -5 0
-7 -4 -4 -10z"/>
<path d="M4606 3188 c3 -5 10 -6 15 -3 13 9 11 12 -6 12 -8 0 -12 -4 -9 -9z"/>
<path d="M4605 1750 c3 -5 8 -10 11 -10 2 0 4 5 4 10 0 6 -5 10 -11 10 -5 0
-7 -4 -4 -10z"/>
<path d="M4605 1270 c3 -5 8 -10 11 -10 2 0 4 5 4 10 0 6 -5 10 -11 10 -5 0
-7 -4 -4 -10z"/>
<path d="M1616 88 c3 -4 11 -5 19 -1 21 7 19 12 -4 10 -11 0 -18 -5 -15 -9z"/>
<path d="M1715 90 c3 -5 8 -10 11 -10 2 0 4 5 4 10 0 6 -5 10 -11 10 -5 0 -7
-4 -4 -10z"/>
<path d="M1986 88 c3 -5 10 -6 15 -3 13 9 11 12 -6 12 -8 0 -12 -4 -9 -9z"/>
<path d="M2355 90 c3 -5 8 -10 11 -10 2 0 4 5 4 10 0 6 -5 10 -11 10 -5 0 -7
-4 -4 -10z"/>
<path d="M2995 90 c3 -5 8 -10 11 -10 2 0 4 5 4 10 0 6 -5 10 -11 10 -5 0 -7
-4 -4 -10z"/>
<path d="M3635 90 c3 -5 8 -10 11 -10 2 0 4 5 4 10 0 6 -5 10 -11 10 -5 0 -7
-4 -4 -10z"/>
<path d="M4275 90 c3 -5 8 -10 11 -10 2 0 4 5 4 10 0 6 -5 10 -11 10 -5 0 -7
-4 -4 -10z"/>
</g>
</svg>
